<svg xmlns="http://www.w3.org/2000/svg" width="20" height="20" viewBox="0 0 20 20">
    <g fill="none" fill-rule="evenodd">
        <g>
            <g>
                <g>
                    <g>
                        <g transform="translate(-20 -284) translate(19 146) translate(1 122) translate(0 16) translate(3 1)">
                            <circle cx="7" cy="11" r="1.5" stroke="#303030"/>
                            <rect width="1" height="3" x="6.5" y="12" fill="#303030" rx=".5"/>
                            <path stroke="#303030" d="M8 .5c.69 0 1.315.28 1.768.732.452.453.732 1.078.732 1.768h0l.001 2.523C12.305 6.678 13.5 8.699 13.5 11c0 1.795-.728 3.42-1.904 4.596C10.42 16.772 8.795 17.5 7 17.5s-3.42-.728-4.596-1.904C1.228 14.42.5 12.795.5 11c0-2.301 1.196-4.323 3-5.478h0V3c0-.69.28-1.315.732-1.768C4.685.78 5.31.5 6 .5h0z"/>
                            <circle cx="7" cy="11" r="6.5" stroke="#303030"/>
                        </g>
                    </g>
                </g>
            </g>
        </g>
    </g>
</svg>
