<svg xmlns="http://www.w3.org/2000/svg" xmlns:xlink="http://www.w3.org/1999/xlink" width="56" height="36" viewBox="0 0 56 36">
    <defs>
        <path id="wjyfjl4zya" d="M0 0L55.043 0 55.043 35.881 0 35.881z"/>
    </defs>
    <g fill="none" fill-rule="evenodd">
        <g>
            <g>
                <g transform="translate(-160 -77) translate(0 70) translate(160 7)">
                    <mask id="mjqqgp1pvb" fill="#fff">
                        <use xlink:href="#wjyfjl4zya"/>
                    </mask>
                    <path fill="red" d="M38.042 0c-8.127 2.814-12.153 9.358-13.099 17.94-.878 7.965-5.452 11.639-9.663 13.069l1.721 4.872c8.127-2.815 12.153-9.358 13.099-17.94.878-7.965 5.452-11.64 9.663-13.069L38.042 0zm-4.328 17.94c0-6.268 4.775-10.641 10.664-10.641 5.89 0 10.665 4.373 10.665 10.641v9.835h-5.376V17.94c0-3.5-2.368-5.607-5.289-5.607-2.92 0-5.288 2.106-5.288 5.607l-.014 9.835h-5.362V17.94zm-23.05-5.607c-2.92 0-5.288 2.106-5.288 5.607 0 3.403 2.368 5.644 5.288 5.644 2.921 0 5.289-2.24 5.289-5.644 0-3.5-2.368-5.607-5.289-5.607zM21.33 17.94c0 6.268-4.775 10.642-10.665 10.642C4.774 28.582 0 24.208 0 17.94S4.775 7.3 10.664 7.3c5.89 0 10.665 4.373 10.665 10.641z" mask="url(#mjqqgp1pvb)"/>
                </g>
            </g>
        </g>
    </g>
</svg>
